<?xml  version="1.0" encoding="UTF-8" standalone="no"?> <svg id="Layer_1" data-name="Layer 1" xmlns="http://www.w3.org/2000/svg" viewBox="0 0 512 512" fill="#053805"><title>Video Player</title><path d="M202.667,378.794A42.83,42.83,0,0,1,160,336.059V175.941a42.667,42.667,0,0,1,64-36.95L362.667,219.05h0a42.666,42.666,0,0,1,0,73.9L224,373.009A42.573,42.573,0,0,1,202.667,378.794Zm0-202.853V336.059L341.333,256Z"/><path d="M256,490.667C126.6,490.667,21.333,385.4,21.333,256S126.6,21.333,256,21.333,490.667,126.6,490.667,256,385.4,490.667,256,490.667ZM256,64C150.131,64,64,150.131,64,256s86.131,192,192,192,192-86.131,192-192S361.869,64,256,64Z"/></svg>