<?xml version="1.0" encoding="UTF-8"?>
<svg width="500" height="500" version="1.1" viewBox="0 0 500.00001 500.00001" xmlns="http://www.w3.org/2000/svg">
 <defs>
  <filter id="d" x="-.03786" y="-.047156" width="1.0757" height="1.0943" color-interpolation-filters="sRGB">
   <feGaussianBlur stdDeviation="6.4759024"/>
  </filter>
  <filter id="e" x="-.15233" y="-.49349" width="1.3047" height="1.987" color-interpolation-filters="sRGB">
   <feGaussianBlur stdDeviation="17.51585"/>
  </filter>
  <filter id="f" x="-.092591" y="-.14043" width="1.1852" height="1.2809" color-interpolation-filters="sRGB">
   <feGaussianBlur stdDeviation="3.8220487"/>
  </filter>
 </defs>
 <g transform="translate(0 -552.36)" fill-rule="evenodd">
  <path d="m316.9 1014.6c37.977-12.212 74.02-36.098 99.063-67.15 29.094-36.074 49.782-82.7 51.865-129 2.1434-47.634-10.422-100.58-41.226-136.98-24.599-29.065-67.886-34.55-102.44-50.552-18.187-8.4229-35.282-21.408-55.167-23.913-51.695-6.5146-109.48-1.8262-154.36 24.642-35.603 20.997-61.286 59.212-76.358 97.699-15.572 39.763-19.536 85.901-10.639 127.67 7.3788 34.638 26.674 67.551 51.209 93.091 30.308 31.55 70.067 56.649 112.37 67.823 40.52 10.704 85.787 9.4959 125.68-3.3333z" fill="#d71604" stroke="#000" stroke-width="1px"/>
  <path d="m284 611.7s6.2846-8.2212 4.3333-12c-2.8571-5.5331-11.804-4.3794-18-5-4.6553-0.46624-14 0.99999-14 0.99999s5.5557 12.033 11 15c4.8869 2.6633 16.667 1 16.667 1z" fill="#fff" fill-opacity=".99379" stroke="#000" stroke-width="1px"/>
  <path d="m115.67 732.36c-1.5754 18.159 21.642 32.155 38.667 38.667 30.349 11.608 64.968-2.4582 97.333-5.3333 28.993-2.5755 59.034-1.5223 86.667-10.667 16.015-5.2996 35.389-10.495 44-25 6.5238-10.989 16.667-33 0.66667-38.333-16-5.3333-35 6.6667-77.667 13.333-42.667 6.6667-63 8.6667-95.667 4.6667s-45.333-5.6667-66 3-27.014 8.3038-28 19.667z" fill="#f85157" filter="url(#e)"/>
  <path d="m95 705.7c-14.8 32.405-4 68 69.333 81.333s184.67 13.333 211.33-13.333c26.667-26.667 22.667-63.333 28.667-69.333s52.667 57.333 50.667 80.667c-2 23.333-33.333 90-66 94.667-32.667 4.6667-84 12.667-116 17.333-32 4.6667-60.667 14-60 33.333s-0.66667 42.667 7.3333 50.667 0.19877 22.127-8 26c-32.798 15.495-76.667-10-100.67-41.333-24-31.333-59.333-89.333-64.667-134-5.3333-44.667-1.2474-82.898 5.3333-103.33 6.3333-19.667 10-26 19.333-36 9.3333-10 24.667-14 28-6 3.3333 8-1.874 13.219-4.6667 19.333z" fill="#cd0000" filter="url(#d)"/>
  <path d="m117.67 697.03s10.667-22 34.667-23.333c24-1.3333 51.333-2 51.333-2s5.3333-24-8-31.333c-13.333-7.3333-28.667-12.667-35.333-4.6667-6.6667 8-26 6.6667-38 18-12 11.333-20 30-15.333 36s10.667 7.3333 10.667 7.3333z" fill="#f44a4d" filter="url(#f)"/>
  <path d="m199 701.7 22-12s16.332 3.8682 24.667 4.3333c8.8924 0.49619 26.667-1.6667 26.667-1.6667s7.8955 4.7272 12.333 5.3333c8.89 1.2143 26.667-3.6667 26.667-3.6667s-10.413-1.331-15-3.6667c-3.3722-1.7172-8.6667-7.3333-8.6667-7.3333s4.5158-6.5568 8-8c5.9539-2.4662 12.986 1.1137 19.333 0 6.7507-1.1845 12.831-4.8336 19.333-7 11.571-3.8551 23.38-6.9602 35-10.667 12.72-4.0576 38-12.667 38-12.667l-53.333 14s-20.841 2.8509-31.333 3.3333c-7.8813 0.36241-23.667-0.33333-23.667-0.33333s2.3148-5.5353 4.3333-7.6667c5.5316-5.841 13.657-8.5126 20.333-13 7.6757-5.1589 22.667-16 22.667-16s-30.295 14.118-45.667 20.667c-6.6057 2.8142-20 8-20 8l-17.667 1.3333-22 0.66666s-26.163-20.268-36-33.333c-9.2057-12.227-20.667-41-20.667-41s1.5095 23.88 4.6667 35.333c4.4045 15.978 19.667 45.667 19.667 45.667s-22.011 2.4427-32.333-0.66667c-11.334-3.4142-22.288-11.071-30-19-7.2312-7.434-15.147-13.598-20-22.333-2.6978-4.8565-4.6667-16-4.6667-16s-0.15511 11.717 2 17c4.1888 10.268 12.709 18.28 20.333 26.333 6.6612 7.0368 13.593 14.183 22 19 9.268 5.3107 19.931 7.9084 30.333 10.333 5.0198 1.1702 15.333 2 15.333 2s-4.3272 8.5082-6.6667 12.667c-1.906 3.388-6 10-6 10z" fill="#008000" stroke="#000" stroke-width="1px"/>
  <path d="m238 672.03c6.7314 8.8864 13.471 8.1633 21 8.3333 6.4638 0.14594 17.934 0.11982 18.333-6.3333 0.76528-12.371-2.751-21.818-1.6667-32.667 1.0264-10.27 7.6667-30 7.6667-30s-12.038 1.1254-17-1.6667c-4.8418-2.7243-10-13.333-10-13.333s-7.1302 12.218-10 18.667c-3.6008 8.0919-7.4773 16.275-9 25-0.97421 5.5823-0.12584 11.335-1e-5 17 0.11114 5.0037-2.4224 10.922 0.66667 15z" fill="#0a6506" stroke="#000" stroke-width="1px"/>
 </g>
</svg>
